<svg xmlns="http://www.w3.org/2000/svg" width="48" height="48" viewBox="0 0 48 48" fill="none">
<path d="M24 0C10.7452 0 0 10.7452 0 24C0 37.2548 10.7452 48 24 48C37.2548 48 48 37.2548 48 24C47.985 10.7514 37.2486 0.015 24 0ZM24 46.4C11.6288 46.4 1.6 36.3712 1.6 24C1.6 11.6288 11.6288 1.6 24 1.6C36.3712 1.6 46.4 11.6288 46.4 24C46.3859 36.3653 36.3653 46.3859 24 46.4Z" fill="#E31837"/>
<path d="M26.2652 23.2124C26.0244 22.527 25.4854 21.9881 24.8 21.7472V12.8C24.8 12.3582 24.4418 12 24 12C23.5582 12 23.2 12.3582 23.2 12.8V21.7472C22.5225 21.9892 21.9892 22.5225 21.7472 23.2H17.6C17.1582 23.2 16.8 23.5582 16.8 24C16.8 24.4418 17.1582 24.8 17.6 24.8H21.7472C22.1856 26.0476 23.5524 26.7036 24.8 26.2652C26.0476 25.8268 26.7036 24.46 26.2652 23.2124ZM24 24.8C23.5582 24.8 23.2 24.4418 23.2 24C23.2 23.5582 23.5582 23.2 24 23.2C24.4418 23.2 24.8 23.5582 24.8 24C24.8 24.4418 24.4418 24.8 24 24.8Z" fill="#E31837"/>
<path d="M42.0304 13.6505C42.0224 13.6337 42.0232 13.6161 42.0136 13.6001C42.004 13.5841 41.9888 13.5761 41.9792 13.5609C40.1583 10.4393 37.5609 7.84178 34.4392 6.02088C34.424 6.01128 34.416 5.99528 34.4 5.98648C34.384 5.97768 34.3664 5.97768 34.3496 5.96968C27.9441 2.27638 20.0559 2.27638 13.6504 5.96968C13.6336 5.97768 13.616 5.97688 13.6 5.98648C13.584 5.99608 13.576 6.01128 13.5608 6.02088C10.4392 7.84178 7.84171 10.4393 6.02081 13.5609C6.01121 13.5753 5.99521 13.5841 5.98641 13.6001C5.97761 13.6161 5.97761 13.6337 5.96961 13.6505C2.27631 20.056 2.27631 27.9442 5.96961 34.3497C5.97761 34.3665 5.97681 34.3841 5.98641 34.4001C5.99601 34.4161 6.01841 34.4393 6.03361 34.4609C7.85361 37.5736 10.4463 40.1639 13.5608 41.9809C13.576 41.9905 13.584 42.0065 13.6 42.0153C13.624 42.0267 13.6485 42.0369 13.6736 42.0457C20.0673 45.7212 27.9327 45.7212 34.3264 42.0457C34.3515 42.0364 34.3761 42.0257 34.4 42.0137C34.416 42.0049 34.424 41.9889 34.4392 41.9793C37.5537 40.1623 40.1464 37.572 41.9664 34.4593C41.9816 34.4377 42.0008 34.4209 42.0136 34.3985C42.0264 34.3761 42.0224 34.3665 42.0304 34.3497C45.7237 27.9442 45.7237 20.056 42.0304 13.6505ZM41.0072 32.8953L38.9496 31.7073C38.5685 31.4838 38.0783 31.6116 37.8548 31.9927C37.6313 32.3738 37.7591 32.864 38.1402 33.0875C38.1433 33.0893 38.1464 33.0911 38.1495 33.0929L40.2039 34.2793C38.6855 36.6633 36.6631 38.6857 34.2791 40.2041L33.0927 38.1497C32.8744 37.7656 32.386 37.6312 32.0019 37.8495C31.6178 38.0678 31.4834 38.5562 31.7017 38.9403C31.7035 38.9434 31.7053 38.9465 31.7071 38.9496L32.8951 41.0072C30.3913 42.3231 27.6261 43.0653 24.7999 43.18V40.8001C24.7999 40.3583 24.4417 40.0001 23.9999 40.0001C23.5581 40.0001 23.1999 40.3583 23.1999 40.8001V43.1801C20.3737 43.0654 17.6085 42.3232 15.1047 41.0073L16.2927 38.9497C16.5161 38.5685 16.3883 38.0784 16.0071 37.855C15.6259 37.6316 15.1358 37.7594 14.9124 38.1406C14.9106 38.1436 14.9089 38.1467 14.9071 38.1498L13.7207 40.2042C11.3367 38.6858 9.31431 36.6634 7.79591 34.2794L9.85031 33.093C10.2344 32.8747 10.3688 32.3863 10.1505 32.0022C9.93221 31.6181 9.44381 31.4837 9.05971 31.702C9.05661 31.7038 9.05351 31.7056 9.05041 31.7074L6.99281 32.8954C5.67691 30.3915 4.93471 27.6263 4.82001 24.8001H7.20001C7.64181 24.8001 8.00001 24.4419 8.00001 24.0001C8.00001 23.5583 7.64181 23.2001 7.20001 23.2001H4.82001C4.93471 20.3739 5.67691 17.6087 6.99281 15.1049L9.05041 16.2929C9.43161 16.5163 9.92171 16.3885 10.1451 16.0073C10.3685 15.6261 10.2407 15.136 9.85951 14.9126C9.85651 14.9108 9.85341 14.9091 9.85031 14.9073L7.79601 13.7209C9.31441 11.3369 11.3368 9.31448 13.7208 7.79608L14.9072 9.85048C15.1256 10.2346 15.614 10.3689 15.9981 10.1505C16.3822 9.93208 16.5165 9.44368 16.2981 9.05958C16.2964 9.05648 16.2946 9.05348 16.2928 9.05038L15.1048 6.99278C17.6086 5.67698 20.3738 4.93478 23.2 4.82008V7.20008C23.2 7.64188 23.5582 8.00008 24 8.00008C24.4418 8.00008 24.8 7.64188 24.8 7.20008V4.82008C27.6262 4.93478 30.3914 5.67698 32.8952 6.99288L31.7072 9.05048C31.4837 9.43158 31.6115 9.92178 31.9926 10.1453C32.3737 10.3688 32.8639 10.241 33.0874 9.85988C33.0892 9.85678 33.091 9.85368 33.0928 9.85058L34.2792 7.79618C36.6632 9.31458 38.6856 11.337 40.204 13.721L38.1496 14.9074C37.7655 15.1258 37.6312 15.6142 37.8496 15.9983C38.068 16.3824 38.5564 16.5167 38.9405 16.2983C38.9436 16.2966 38.9466 16.2948 38.9497 16.293L41.0073 15.105C42.3232 17.6088 43.0654 20.374 43.1801 23.2002H40.8C40.3582 23.2002 40 23.5584 40 24.0002C40 24.442 40.3582 24.8002 40.8 24.8002H43.18C43.0653 27.6263 42.3231 30.3915 41.0072 32.8953Z" fill="#E31837"/>
</svg>