<svg xmlns="http://www.w3.org/2000/svg" width="55" height="48" viewBox="0 0 55 48" fill="none">
<path d="M33.8429 35.3267H30.8279C30.3829 35.3267 30.0222 35.6865 30.0222 36.1305C30.0222 36.5745 30.3829 36.9343 30.8279 36.9343H33.8429C34.2878 36.9343 34.6486 36.5745 34.6486 36.1305C34.6486 35.6865 34.2878 35.3267 33.8429 35.3267Z" fill="#E31837"/>
<path d="M51.5893 26.7219L47.202 25.0335L44.9652 22.8019C44.8216 22.6586 44.6365 22.581 44.4474 22.5689V20.7931C45.5017 19.6717 46.2521 18.2515 46.5549 16.6516C46.7429 16.6601 46.9327 16.645 47.12 16.6068C48.1919 16.3879 48.97 15.3955 48.97 14.2475V13.6614C48.97 12.9972 48.7 12.3876 48.2605 11.9517C48.9719 8.09135 48.3859 4.94538 46.5583 2.83974C44.7904 0.803123 41.9422 -0.170333 38.322 0.0250439C34.9773 0.205417 32.8181 1.74078 32.134 2.30248C31.7595 2.34685 31.1217 2.47803 30.4761 2.8645C29.5812 3.40015 28.5146 4.52537 28.5146 6.84385C28.5146 8.86643 28.8386 10.5551 29.0732 11.5131C28.2869 11.8953 27.7609 12.7235 27.7609 13.6704V14.2474C27.7609 15.3954 28.5389 16.3878 29.6109 16.6067C29.7981 16.645 29.988 16.66 30.1759 16.6515C30.4788 18.2514 31.2293 19.6716 32.2834 20.793V22.5688C32.0944 22.5809 31.9092 22.6585 31.7657 22.8018L29.5288 25.0334L25.1416 26.7217C24.7621 26.8677 24.3995 27.0571 24.0641 27.2844C23.6961 27.5339 23.6005 28.0338 23.8505 28.4009C24.0063 28.6299 24.2597 28.7531 24.5176 28.7531C24.6734 28.7531 24.8309 28.708 24.9696 28.6141C25.2035 28.4556 25.4564 28.3236 25.7214 28.2215L29.7931 26.6547L32.9062 31.3136C33.292 31.8911 33.9106 32.2616 34.6029 32.33C34.6799 32.3376 34.757 32.3414 34.8334 32.3414C35.2342 32.3414 35.6231 32.2362 35.9673 32.0419L35.2992 47.1607C35.2796 47.6042 35.6241 47.9796 36.0687 47.9991C36.0807 47.9996 36.0927 47.9999 36.1048 47.9999C36.5334 47.9999 36.89 47.6628 36.909 47.2314L37.5291 33.198H39.2017L39.8217 47.2314C39.8407 47.6629 40.1974 47.9999 40.626 47.9999C40.638 47.9999 40.65 47.9996 40.6621 47.9991C41.1066 47.9796 41.4511 47.6042 41.4315 47.1607L40.7635 32.0419C41.1077 32.2362 41.4964 32.3414 41.8973 32.3414C41.9738 32.3414 42.0508 32.3376 42.1278 32.33C42.8202 32.2616 43.4386 31.8911 43.8246 31.3136L46.9377 26.6547L51.0093 28.2215C51.5804 28.4412 52.0719 28.7918 52.4584 29.2292L49.6729 32.0083C48.6664 33.0124 48.1122 34.3473 48.1122 35.7672V47.1962C48.1122 47.6401 48.473 48 48.9179 48C49.3628 48 49.7236 47.6401 49.7236 47.1962V35.7672C49.7236 34.7768 50.1102 33.8455 50.8122 33.1451L53.2569 30.706C53.3551 31.0654 53.401 31.4432 53.3855 31.8294L52.7615 47.1636C52.7434 47.6072 53.0892 47.9813 53.5337 47.9994C53.5449 47.9999 53.556 48.0001 53.567 48.0001C53.9968 48.0001 54.3539 47.6613 54.3714 47.229L54.9956 31.8944C55.0871 29.6197 53.7182 27.5411 51.5893 26.7219ZM31.7531 16.3201C31.611 15.5484 30.8947 14.9874 30.1216 15.0445C30.0604 15.0489 29.9975 15.0447 29.9341 15.0318C29.6138 14.9664 29.3722 14.6291 29.3722 14.2475V13.6703C29.3722 13.2974 29.6219 12.9615 29.9407 12.9057C30.2097 12.8585 30.4673 12.957 30.6302 13.1691C30.7781 13.3615 30.9755 13.4991 31.2007 13.5668C31.5307 13.6663 31.8946 13.6079 32.1743 13.4109C32.6781 13.0561 33.1226 12.6225 33.4955 12.1222C33.761 11.766 33.6867 11.2625 33.3297 10.9977C32.9726 10.7327 32.468 10.8068 32.2024 11.163C32.0165 11.4125 31.8064 11.639 31.5751 11.8394C31.3197 11.6214 31.0212 11.4639 30.7014 11.374C30.4944 10.5828 30.126 8.88786 30.126 6.84364C30.126 5.61253 30.5064 4.74754 31.2565 4.27276C31.8418 3.90226 32.4613 3.88747 32.4609 3.88736C32.6668 3.88736 32.8673 3.80645 33.0168 3.6653C33.0365 3.64686 35.017 1.81313 38.4088 1.63018C41.5135 1.46299 43.9103 2.24493 45.34 3.89197C46.7809 5.55209 47.2608 8.10078 46.7402 11.2908C46.5244 11.2832 46.2882 11.2995 46.0531 11.3386L45.2962 9.52501C45.1417 9.15504 44.7371 8.95527 44.3485 9.05634C44.2736 9.07584 36.8334 10.9576 33.7138 7.08263C33.4352 6.73657 32.9282 6.68127 32.5811 6.95928C32.2342 7.23728 32.1788 7.74314 32.4576 8.08931C35.6433 12.0464 41.9645 11.1856 44.0686 10.7658L44.654 12.1681C44.9057 12.771 45.5496 13.1002 46.1842 12.9509C46.4447 12.8897 46.6936 12.8883 46.7871 12.9068C47.1129 12.9715 47.3586 13.2957 47.3586 13.6612V14.2474C47.3586 14.6291 47.117 14.9663 46.7966 15.0317C46.7334 15.0447 46.6701 15.0489 46.6092 15.0444C45.8362 14.9883 45.1199 15.5482 44.9776 16.3201C44.3916 19.5036 41.6107 21.8143 38.3654 21.8143C35.12 21.8143 32.3392 19.5036 31.7531 16.3201ZM35.3271 30.5288C35.1228 30.7326 34.8853 30.7426 34.7618 30.7304C34.6384 30.7182 34.4073 30.6619 34.247 30.422L31.1108 25.7287L32.3721 24.4703L37.1867 28.6735L35.3271 30.5288ZM37.6001 31.5905L37.6489 30.4858L38.3653 29.771L39.0817 30.4858L39.1304 31.5905H37.6001ZM38.3654 27.5662L33.8948 23.6634V22.1251C35.1946 22.9498 36.7324 23.4219 38.3654 23.4219C39.9983 23.4219 41.5363 22.9498 42.8361 22.1251V23.6634L38.3654 27.5662ZM42.4839 30.422C42.3236 30.662 42.0925 30.7182 41.9692 30.7304C41.8455 30.7426 41.608 30.7326 41.4037 30.5287L39.5441 28.6734L44.3588 24.4702L45.62 25.7286L42.4839 30.422Z" fill="#E31837"/>
<path d="M25.5498 30.9341L21.6158 29.221L19.4653 27.0755C19.3213 26.9316 19.1361 26.8545 18.9475 26.8425V25.5779C20.7854 24.373 22.1304 22.4566 22.5625 20.173C22.7741 20.1825 22.9878 20.1622 23.1984 20.1126C24.2293 19.8692 24.9775 18.8835 24.9775 17.7689V17.1829C24.9775 16.3686 24.5725 15.6361 23.945 15.2063C24.1296 14.4769 24.2237 13.7306 24.2237 12.9795C24.2237 9.64936 22.4194 6.71624 19.6998 5.03212C19.6708 2.25279 17.293 -2.94361e-08 14.373 -2.94361e-08C11.4529 -2.94361e-08 9.07511 2.25279 9.04611 5.03212C6.3266 6.71624 4.52234 9.64947 4.52234 12.9795C4.52234 13.7284 4.61579 14.4725 4.79927 15.1999C4.17214 15.6275 3.76855 16.3635 3.76855 17.1917V17.7689C3.76855 18.8835 4.51675 19.8692 5.54768 20.1126C5.75823 20.1623 5.97179 20.1825 6.18352 20.173C6.61568 22.4566 7.96071 24.373 9.7986 25.5779V26.8425C9.61007 26.8545 9.42488 26.9316 9.28082 27.0755L7.13034 29.221L3.19642 30.9341C1.19482 31.8059 -0.0877996 33.8542 0.00469098 36.0312L0.480464 47.2301C0.498834 47.662 0.855583 47.9999 1.28484 47.9999C1.29634 47.9999 1.30794 47.9997 1.31954 47.9991C1.76416 47.9804 2.1092 47.6056 2.0904 47.162L1.61452 35.963C1.58391 35.2414 1.7719 34.5413 2.12532 33.9386L4.23992 36.4703C4.9082 37.2703 5.27612 38.2844 5.27612 39.3257V47.1961C5.27612 47.64 5.63684 47.9999 6.08179 47.9999C6.52673 47.9999 6.88745 47.64 6.88745 47.1961V39.3257C6.88745 37.9091 6.38676 36.5295 5.47775 35.4412L3.22972 32.7498C3.42083 32.6184 3.62396 32.502 3.84106 32.4074L7.26956 30.9143L9.69236 34.8378C9.93159 35.2252 10.3271 35.4879 10.7776 35.5587C10.8586 35.5714 10.9399 35.5776 11.0207 35.5776C11.3891 35.5776 11.7479 35.4474 12.0323 35.2052L13.5676 33.8982V47.196C13.5676 47.6399 13.9283 47.9998 14.3733 47.9998C14.8182 47.9998 15.179 47.6399 15.179 47.196V33.8984L16.7141 35.2054C16.9986 35.4476 17.3574 35.5778 17.7257 35.5778C17.8065 35.5778 17.8878 35.5715 17.9688 35.5589C18.4193 35.4881 18.8149 35.2255 19.0541 34.838L21.4769 30.9144L24.9054 32.4075C25.1224 32.5021 25.3256 32.6185 25.5167 32.7499L23.2687 35.4413C22.3597 36.5295 21.859 37.9092 21.859 39.3258V47.1962C21.859 47.6401 22.2197 48 22.6647 48C23.1096 48 23.4703 47.6401 23.4703 47.1962V39.3258C23.4703 38.2845 23.8384 37.2704 24.5065 36.4704L26.6211 33.9387C26.9746 34.5414 27.1626 35.2415 27.1319 35.9631L26.6562 47.1621C26.6374 47.6056 26.9824 47.9804 27.427 47.9993C27.4386 47.9998 27.4501 48 27.4617 48C27.891 48 28.2477 47.6622 28.2661 47.2302L28.7419 36.0313C28.8343 33.8543 27.5515 31.8059 25.5498 30.9341ZM14.3732 1.6076C16.0872 1.6076 17.5333 2.69852 17.961 4.17666C16.8487 3.75782 15.6385 3.52751 14.3732 3.52751C13.1079 3.52751 11.8976 3.75782 10.7854 4.17666C11.213 2.69852 12.659 1.6076 14.3732 1.6076ZM7.7608 19.8418C7.61879 19.0698 6.90131 18.5091 6.12937 18.5661C6.06095 18.5709 5.99026 18.5651 5.91893 18.5482C5.61171 18.4756 5.38 18.1406 5.38 17.7689V17.1917C5.38 16.8188 5.62975 16.483 5.94848 16.4271C6.21746 16.38 6.47495 16.4786 6.6378 16.6904C6.78573 16.8829 6.98306 17.0205 7.20854 17.0885C7.53843 17.1879 7.90249 17.1295 8.182 16.9324C8.67818 16.5831 9.1169 16.1572 9.486 15.6667C9.75316 15.3118 9.68129 14.8078 9.32551 14.5414C8.96962 14.2749 8.46463 14.3466 8.19747 14.7015C8.01474 14.9443 7.80903 15.1649 7.5828 15.361C7.23808 15.0669 6.81537 14.8828 6.36699 14.8269C6.21263 14.2215 6.13367 13.6024 6.13367 12.9796C6.13367 8.65426 9.82986 5.13522 14.3732 5.13522C18.9164 5.13522 22.6126 8.65415 22.6126 12.9796C22.6126 13.6012 22.5341 14.219 22.3802 14.8234C22.1682 14.8402 21.9527 14.8748 21.7532 14.9265L21.1476 14.4296C20.8432 14.1799 20.4602 14.0549 20.0725 14.078C18.8882 14.1478 12.8234 14.3076 9.7118 10.5923C9.42649 10.2517 8.91849 10.2062 8.57699 10.4909C8.2355 10.7755 8.19006 11.2825 8.47537 11.6231C10.01 13.4554 12.2608 14.6944 15.1652 15.3058C17.389 15.7738 19.3657 15.7284 20.1403 15.6843L21.0851 16.4595C21.3452 16.6729 21.7099 16.703 22.0011 16.5339C22.1378 16.4596 22.5954 16.3886 22.7951 16.4284C23.1209 16.493 23.3665 16.8173 23.3665 17.1829V17.7689C23.3665 18.1407 23.1348 18.4757 22.8275 18.5482C22.7563 18.565 22.6855 18.5711 22.6171 18.566C21.8456 18.51 21.1277 19.0698 20.9856 19.8417C20.3995 23.0253 17.6186 25.3359 14.3733 25.3359C11.1278 25.3359 8.34689 23.0253 7.7608 19.8418ZM11.0325 33.9432L8.60922 30.019L9.85059 28.7805L13.1869 32.1091L11.0325 33.9432ZM14.3732 31.019L11.41 28.0627V26.3998C12.3351 26.7511 13.3346 26.9435 14.3732 26.9435C15.4117 26.9435 16.4113 26.7511 17.3363 26.3999V28.0627L14.3732 31.019ZM17.7139 33.9432L15.5594 32.1091L18.8958 28.7805L20.1371 30.019L17.7139 33.9432Z" fill="#E31837"/>
<path d="M11.3582 38.8721H9.09693C8.65198 38.8721 8.29126 39.232 8.29126 39.6759C8.29126 40.1198 8.65198 40.4797 9.09693 40.4797H11.3582C11.8031 40.4797 12.1638 40.1198 12.1638 39.6759C12.1638 39.232 11.8031 38.8721 11.3582 38.8721Z" fill="#E31837"/>
</svg>