<svg xmlns="http://www.w3.org/2000/svg" width="42" height="48" viewBox="0 0 42 48" fill="none">
<path d="M40.2979 37.7606C39.7787 34.6413 37.5961 32.0819 34.6022 31.0816L33.8088 30.8168C34.858 30.0968 35.5062 29.1407 35.5502 29.0741L35.9551 28.4648L35.3718 28.0259C34.4114 27.3035 33.6496 26.3397 33.1706 25.238L31.7536 25.8581C32.2334 26.9582 32.9427 27.9461 33.8273 28.7528C33.3398 29.2862 32.4822 30.007 31.528 30.055L27.9539 28.8612V27.871H26.4087V29.3257L25.2559 33.9461L22.1354 30.1936H19.8654L16.7448 33.9461L15.5921 29.3257V27.871H14.0469V28.8612L10.4751 30.0542C9.51164 30.0256 8.65867 29.2901 8.17192 28.7544C9.92807 27.151 10.9564 24.8501 10.9564 22.4517H9.4112C9.4112 24.6326 8.37126 26.7167 6.62902 28.0259L6.04492 28.4648L6.44977 29.0741C6.49381 29.1399 7.1428 30.0968 8.19047 30.8168L7.39777 31.0816C4.40389 32.0819 2.22126 34.6413 1.70207 37.7606L-2.35783e-08 48H42L40.2979 37.7606ZM34.5991 46.4517C34.7707 45.8935 34.9074 45.1425 34.9074 44.1291C34.9074 41.5162 33.2084 39.7835 33.1358 39.7108L32.0433 40.8055C32.0565 40.8194 33.3622 42.1495 33.3622 44.1291C33.3622 45.4135 33.1072 46.125 32.9458 46.4517H21.773V33.2904H20.2278V46.4517H9.05811C8.89045 46.1157 8.63858 45.405 8.63858 44.1291C8.63858 42.1735 9.94662 40.8171 9.95975 40.8031L9.4112 40.2581L8.86496 39.7108C8.79233 39.7835 7.09336 41.5162 7.09336 44.1291C7.09336 45.1425 7.23011 45.8935 7.40163 46.4517H1.82491L3.2272 38.0153C3.65214 35.4635 5.43765 33.3693 7.8876 32.5502L10.7115 31.6073C10.7262 31.6065 10.7409 31.6065 10.7555 31.6057L10.7548 31.5926L14.2725 30.4181L15.9846 37.2798L20.5901 31.742H21.4106L26.0162 37.2798L27.7283 30.4181L31.2398 31.591L31.2383 31.6104C31.2599 31.6119 31.2808 31.6111 31.3024 31.6127L34.1124 32.551C36.5624 33.3701 38.3479 35.4643 38.7728 38.016L40.1759 46.4517H34.5991Z" fill="#E31837"/>
<path d="M24.8634 37.9355H23.3182V39.4839H24.8634V37.9355Z" fill="#E31837"/>
<path d="M24.8634 43.355H23.3182V44.9034H24.8634V43.355Z" fill="#E31837"/>
<path d="M8.63858 20.9032H11.3087C11.7058 22.2449 12.4306 23.4751 13.4458 24.4924L16.4582 27.511C17.1875 28.2418 18.1579 28.6452 19.1901 28.6452H22.8106C23.8428 28.6452 24.8132 28.2418 25.5426 27.511L27.5011 25.5484H28.7265C30.8566 25.5484 32.5896 23.8119 32.5896 21.6774V20.9032H33.3622C35.4923 20.9032 37.2252 19.1667 37.2252 17.0323V13.9355C37.2252 11.801 35.4923 10.0645 33.3622 10.0645H32.4621C31.6987 4.36723 26.805 0 21.0004 0C15.1957 0 10.302 4.36723 9.53867 10.0645H8.63858C6.50848 10.0645 4.77551 11.801 4.77551 13.9355V17.0323C4.77551 19.1667 6.50848 20.9032 8.63858 20.9032ZM34.1348 11.7561C35.0318 12.0759 35.68 12.9275 35.68 13.9355V17.0323C35.68 18.0403 35.0318 18.8919 34.1348 19.2124V11.7561ZM27.4625 23.3977L26.8614 24H18.6825V25.5484H25.3162L24.4501 26.4163C24.012 26.8552 23.4302 27.0968 22.8106 27.0968H19.1901C18.5705 27.0968 17.988 26.8552 17.5507 26.4163L14.5382 23.3977C13.2256 22.0815 12.5016 20.3319 12.5016 18.4707V17.8065C12.5016 15.2446 14.5807 13.1613 17.1373 13.1613H18.4925C19.7781 13.1613 21.0514 12.7363 22.0805 11.9636L23.173 11.1422C24.2987 12.4188 25.9196 13.1613 27.6487 13.1613H29.4991V13.9355V18.4707C29.4991 20.3319 28.7752 22.0815 27.4625 23.3977ZM31.0443 18.4707V13.9355V11.6129H32.5896V19.3548H31.0443V18.4707ZM31.0443 21.6774C31.0443 22.855 30.1628 23.8196 29.0286 23.9698C29.7958 23.064 30.3606 22.0243 30.692 20.9032H31.0443V21.6774ZM21.0004 1.54839C25.9606 1.54839 30.1582 5.22813 30.9084 10.0645H29.4991V11.6129H27.6487C26.163 11.6129 24.7846 10.8735 23.961 9.63484L23.5083 8.95355L21.1526 10.7249C20.3908 11.2978 19.4451 11.6129 18.4925 11.6129H17.1373C15.2908 11.6129 13.6351 12.4328 12.5016 13.7234V10.0645H11.0924C11.8426 5.22813 16.0402 1.54839 21.0004 1.54839ZM9.41119 11.6129H10.9564V13.9355V18.4707V19.3548H9.41119V11.6129ZM6.32074 13.9355C6.32074 12.9275 6.96896 12.0759 7.86596 11.7554V19.2116C6.96896 18.8911 6.32074 18.0395 6.32074 17.0315V13.9355Z" fill="#E31837"/>
</svg>